<svg class="brobot" data-name="Layer 1" xmlns="http://www.w3.org/2000/svg" viewBox="0 0 75.49 90.23"><defs>
  <style>
    .tie  {
      fill: #2be700;
    }
    .eyes {
      fill: #2be700;
    }
    .bot-base { fill:#484848; }

    @keyframes rotate {
      0% {
        transform: rotate(0);
      }
      100% {
        transform: rotate(360deg);
      }
    }
    .eyes-animate {
       fill: #f32853 !important;
    }
    .tie-animate {
      fill: #f32853 !important;
      transform-origin: 50% 50%;
      animation: rotate 2s ease infinite;
    }
    .tie {

    }
    @keyframes error {
      0% {
        transform: rotate(0);
      }
      10% {
        transform: rotate(10deg);
      }
      15% {
        transform: rotate(-10deg);
      }	
      25% {
        transform: rotate(15deg);
      }
      30% {
        transform: rotate(-15deg);
      }
      40% {
        transform: rotate(20deg);
      }
      45% {
        transform: rotate(-30deg);
      }			
      100% {
        transform: translateX(20px) translateY(-20px) rotate(-90deg);
      }
    }
    .error {
      transform-origin: 50% 80%;    
      animation: error 0.7s ease-in;
      animation-fill-mode: forwards;
    }
  </style>

</defs><title>brobot</title><circle class="eyes eyes-line" cx="19.72" cy="22.15" r="3.83"/><circle class="eyes eyes-line" cx="32.79" cy="22.35" r="3.83"/><path class="bot-base" d="M17.49,30.81a2.87,2.87,0,0,1,2.09-.94v6.4a3.09,3.09,0,0,1-3-3.2A3.3,3.3,0,0,1,17.49,30.81Z"/><rect class="bot-base" x="21.17" y="29.87" width="1.46" height="6.4"/><rect class="bot-base" x="24.21" y="29.87" width="1.44" height="6.4"/><rect class="bot-base" x="27.24" y="29.87" width="1.46" height="6.4"/><rect class="bot-base" x="30.28" y="29.87" width="1.46" height="6.4"/><path class="bot-base" d="M36.28,33.07a3.09,3.09,0,0,1-3,3.2v-6.4A3.08,3.08,0,0,1,36.28,33.07Z"/><path class="bot-base" d="M75.49,31.46v5.24a11.82,11.82,0,0,1-8.05,11.19V70.5H51.32V90.23H43.83v-28c0-4.13-2.62-6.91-6.53-6.91H14a6.54,6.54,0,0,0-6.53,6.53v17.7H0V61.89a14,14,0,0,1,14-14H37.3c8,0,14,6.19,14,14.4V63H60V47.89a11.83,11.83,0,0,1-8.05-11.19V31.46h7.48v5.24a4.31,4.31,0,1,0,8.61,0V31.46h7.49Z"/><path class="bot-base" d="M46.27,26v-9.9a7,7,0,0,0-7-7h-11V5.9a3.06,3.06,0,1,0-2,0V9.12H14a7,7,0,0,0-7,7V26H5v5.48H7V46.12H46.27V31.46h2.21V26H46.27Zm-6,14.16H13V16.08a1,1,0,0,1,1-1H39.31a1,1,0,0,1,1,1V40.14h0Z"/><path class="tie tie-line" d="M16.62,68.55l7.1-4.64v3.64l-2.48,1.71,2.48,1.57v3.82l-7.1-4.5V68.55Z"/><path class="tie tie-line" d="M36.49,70.13l-7.1,4.5V70.82l2.48-1.57-2.48-1.71V63.91l7.1,4.64v1.58Z"/></svg>
