<svg id="Layer_1" data-name="Layer 1" xmlns="http://www.w3.org/2000/svg" viewBox="0 0 43.51 46.12"><defs><style>.cls-1{fill:#2be700;}.cls-2{fill:#484848;}</style></defs><title>brobot-large</title><circle class="cls-1" cx="14.75" cy="22.15" r="3.83"/><circle class="cls-1" cx="27.82" cy="22.35" r="3.83"/><path class="cls-2" d="M12.52,30.81a2.87,2.87,0,0,1,2.09-.94v6.4a3.09,3.09,0,0,1-3-3.2A3.3,3.3,0,0,1,12.52,30.81Z"/><rect class="cls-2" x="16.2" y="29.87" width="1.46" height="6.4"/><rect class="cls-2" x="19.24" y="29.87" width="1.44" height="6.4"/><rect class="cls-2" x="22.27" y="29.87" width="1.46" height="6.4"/><rect class="cls-2" x="25.31" y="29.87" width="1.46" height="6.4"/><path class="cls-2" d="M31.31,33.07a3.09,3.09,0,0,1-3,3.2v-6.4A3.08,3.08,0,0,1,31.31,33.07Z"/><path class="cls-2" d="M41.3,26v-9.9a7,7,0,0,0-7-7h-11V5.9a3.06,3.06,0,1,0-2,0V9.12H9a7,7,0,0,0-7,7V26H0v5.48H2V46.12H41.3V31.46h2.21V26H41.3Zm-6,14.16H8V16.08a1,1,0,0,1,1-1H34.34a1,1,0,0,1,1,1V40.14h0Z"/></svg>