<svg xmlns="http://www.w3.org/2000/svg" xmlns:xlink="http://www.w3.org/1999/xlink" version="1.1" x="0px" y="0px" viewBox="0 0 100 125" enable-background="new 0 0 100 100" xml:space="preserve"><circle cx="35.837" cy="26.108" r="3.828"/><circle cx="48.906" cy="26.307" r="3.827"/><path d="M33.614,34.767c0.539-0.57,1.268-0.935,2.091-0.935v6.4c-1.646-0.015-2.962-1.426-2.962-3.201  C32.743,36.145,33.076,35.337,33.614,34.767z"/><rect x="37.291" y="33.833" width="1.456" height="6.4"/><rect x="40.331" y="33.833" width="1.442" height="6.4"/><rect x="43.356" y="33.833" width="1.458" height="6.4"/><rect x="46.397" y="33.833" width="1.457" height="6.4"/><path d="M52.401,37.032c0,1.775-1.315,3.186-2.962,3.201v-6.4C51.086,33.849,52.401,35.257,52.401,37.032z"/><path d="M91.61,35.415v5.24c0,5.2-3.38,9.62-8.051,11.191v22.609H67.44v19.74h-7.49V66.225c0-4.13-2.62-6.909-6.53-6.909H30.14  c-3.6,0-6.53,2.93-6.53,6.529v17.7h-7.49v-17.7c0-7.729,6.29-14.02,14.02-14.02h23.28c7.99,0,14.021,6.189,14.021,14.399v0.75h8.64  V51.846c-4.67-1.571-8.05-5.991-8.05-11.191v-5.24h7.479v5.24c0,2.38,1.94,4.31,4.311,4.31s4.3-1.93,4.3-4.31v-5.24H91.61z"/><polygon points="54.83,66.735 54.83,70.565 43.51,70.565 42.22,69.275 39.38,72.125 35.74,68.495 34.02,70.215 30.69,70.215   30.69,66.735 "/><polygon points="43.1,71.565 54.83,71.565 54.83,74.695 30.69,74.695 30.69,71.215 34.43,71.215 35.74,69.905 39.38,73.535   42.22,70.695 "/><path d="M62.39,29.94v-9.9c0-3.83-3.12-6.96-6.96-6.96H44.38V9.86C45.56,9.45,46.4,8.32,46.4,7c0-1.68-1.36-3.04-3.04-3.04  c-1.68,0-3.05,1.36-3.05,3.04c0,1.32,0.84,2.44,2.02,2.85v3.23H30.09c-3.84,0-6.96,3.13-6.96,6.96v9.9h-2.04v5.48h2.04v14.66h39.26  V35.42h2.21v-5.48H62.39z M56.4,44.1H29.12V20.04c0-0.54,0.44-0.96,0.97-0.96h25.34c0.53,0,0.971,0.42,0.971,0.96V44.1z"/><text x="0" y="115" fill="#000000" font-size="5px" font-weight="bold" font-family="'Helvetica Neue', Helvetica, Arial-Unicode, Arial, Sans-serif">Created by Dan Hetteix</text><text x="0" y="120" fill="#000000" font-size="5px" font-weight="bold" font-family="'Helvetica Neue', Helvetica, Arial-Unicode, Arial, Sans-serif">from the Noun Project</text></svg>